<?xml version="1.0" encoding="UTF-8" standalone="no"?>
<svg width="1844px" height="448px" viewBox="0 0 1844 448" version="1.1" xmlns="http://www.w3.org/2000/svg" xmlns:xlink="http://www.w3.org/1999/xlink" xmlns:sketch="http://www.bohemiancoding.com/sketch/ns">
    <!-- Generator: Sketch 3.3.3 (12072) - http://www.bohemiancoding.com/sketch -->
    <title>Artboard 1</title>
    <desc>Created with Sketch.</desc>
    <defs>
        <filter x="-50%" y="-50%" width="200%" height="200%" filterUnits="objectBoundingBox" id="filter-1">
            <feOffset dx="1" dy="0" in="SourceAlpha" result="shadowOffsetOuter1"></feOffset>
            <feGaussianBlur stdDeviation="2" in="shadowOffsetOuter1" result="shadowBlurOuter1"></feGaussianBlur>
            <feColorMatrix values="0 0 0 0 0   0 0 0 0 0   0 0 0 0 0  0 0 0 0.35 0" in="shadowBlurOuter1" type="matrix" result="shadowMatrixOuter1"></feColorMatrix>
            <feMerge>
                <feMergeNode in="shadowMatrixOuter1"></feMergeNode>
                <feMergeNode in="SourceGraphic"></feMergeNode>
            </feMerge>
        </filter>
        <filter x="-50%" y="-50%" width="200%" height="200%" filterUnits="objectBoundingBox" id="filter-2">
            <feOffset dx="1" dy="0" in="SourceAlpha" result="shadowOffsetOuter1"></feOffset>
            <feGaussianBlur stdDeviation="2" in="shadowOffsetOuter1" result="shadowBlurOuter1"></feGaussianBlur>
            <feColorMatrix values="0 0 0 0 0   0 0 0 0 0   0 0 0 0 0  0 0 0 0.35 0" in="shadowBlurOuter1" type="matrix" result="shadowMatrixOuter1"></feColorMatrix>
            <feMerge>
                <feMergeNode in="shadowMatrixOuter1"></feMergeNode>
                <feMergeNode in="SourceGraphic"></feMergeNode>
            </feMerge>
        </filter>
        <filter x="-50%" y="-50%" width="200%" height="200%" filterUnits="objectBoundingBox" id="filter-3">
            <feOffset dx="0" dy="-2" in="SourceAlpha" result="shadowOffsetOuter1"></feOffset>
            <feGaussianBlur stdDeviation="2" in="shadowOffsetOuter1" result="shadowBlurOuter1"></feGaussianBlur>
            <feColorMatrix values="0 0 0 0 0   0 0 0 0 0   0 0 0 0 0  0 0 0 0.35 0" in="shadowBlurOuter1" type="matrix" result="shadowMatrixOuter1"></feColorMatrix>
            <feMerge>
                <feMergeNode in="shadowMatrixOuter1"></feMergeNode>
                <feMergeNode in="SourceGraphic"></feMergeNode>
            </feMerge>
        </filter>
        <filter x="-50%" y="-50%" width="200%" height="200%" filterUnits="objectBoundingBox" id="filter-4">
            <feOffset dx="1" dy="1" in="SourceAlpha" result="shadowOffsetOuter1"></feOffset>
            <feGaussianBlur stdDeviation="2" in="shadowOffsetOuter1" result="shadowBlurOuter1"></feGaussianBlur>
            <feColorMatrix values="0 0 0 0 0   0 0 0 0 0   0 0 0 0 0  0 0 0 0.35 0" in="shadowBlurOuter1" type="matrix" result="shadowMatrixOuter1"></feColorMatrix>
            <feMerge>
                <feMergeNode in="shadowMatrixOuter1"></feMergeNode>
                <feMergeNode in="SourceGraphic"></feMergeNode>
            </feMerge>
        </filter>
        <filter x="-50%" y="-50%" width="200%" height="200%" filterUnits="objectBoundingBox" id="filter-5">
            <feOffset dx="1" dy="0" in="SourceAlpha" result="shadowOffsetOuter1"></feOffset>
            <feGaussianBlur stdDeviation="2" in="shadowOffsetOuter1" result="shadowBlurOuter1"></feGaussianBlur>
            <feColorMatrix values="0 0 0 0 0   0 0 0 0 0   0 0 0 0 0  0 0 0 0.35 0" in="shadowBlurOuter1" type="matrix" result="shadowMatrixOuter1"></feColorMatrix>
            <feMerge>
                <feMergeNode in="shadowMatrixOuter1"></feMergeNode>
                <feMergeNode in="SourceGraphic"></feMergeNode>
            </feMerge>
        </filter>
    </defs>
    <g id="Page-1" stroke="none" stroke-width="1" fill="none" fill-rule="evenodd" sketch:type="MSPage">
        <g id="Artboard-1" sketch:type="MSArtboardGroup">
            <g id="Calendar" sketch:type="MSLayerGroup" transform="translate(34.000000, 21.000000)">
                <rect id="Rectangle-5" fill="#1ABC8F" sketch:type="MSShapeGroup" x="13" y="48" width="349" height="99"></rect>
                <path d="M0,67.0097621 C0,48.2266891 15.2199947,33 34.0098433,33 L341.990157,33 C360.773274,33 376,48.2244904 376,67.0097621 L376,358.990238 C376,377.773311 360.780005,393 341.990157,393 L34.0098433,393 C15.2267255,393 0,377.77551 0,358.990238 L0,67.0097621 Z M16,65.7667691 C16,56.3767457 23.6082016,48.7646277 33.0034503,48.7646277 L342.17155,48.7646277 C351.562296,48.7646277 359.175,56.3829971 359.175,65.7667691 L359.175,360.334295 C359.175,369.724318 351.566798,377.336436 342.17155,377.336436 L33.0034503,377.336436 C23.612704,377.336436 16,369.718067 16,360.334295 L16,65.7667691 Z" id="Rectangle-3" fill="#7F7D7F" sketch:type="MSShapeGroup"></path>
                <g id="Rectangle-1-+-Rectangle-1-Copy" transform="translate(90.000000, 0.000000)" fill="#AAA8A8" sketch:type="MSShapeGroup">
                    <rect id="Rectangle-1" x="0" y="0" width="40" height="115" rx="19"></rect>
                    <rect id="Rectangle-1-Copy" x="163" y="0" width="40" height="115" rx="19"></rect>
                </g>
                <rect id="Rectangle-6" fill="#7B7C7C" sketch:type="MSShapeGroup" x="65" y="172" width="49" height="49"></rect>
                <rect id="Rectangle-6-Copy-2" fill="#7B7C7C" sketch:type="MSShapeGroup" x="130" y="172" width="49" height="49"></rect>
                <rect id="Rectangle-6-Copy-3" fill="#7B7C7C" sketch:type="MSShapeGroup" x="196" y="172" width="49" height="49"></rect>
                <rect id="Rectangle-6-Copy-4" fill="#F57C2E" sketch:type="MSShapeGroup" x="261" y="172" width="49" height="49"></rect>
                <rect id="Rectangle-6-Copy" fill="#7B7C7C" sketch:type="MSShapeGroup" x="65" y="237" width="49" height="49"></rect>
                <rect id="Rectangle-6-Copy-7" fill="#7B7C7C" sketch:type="MSShapeGroup" x="130" y="237" width="49" height="49"></rect>
                <rect id="Rectangle-6-Copy-6" fill="#7B7C7C" sketch:type="MSShapeGroup" x="196" y="237" width="49" height="49"></rect>
                <rect id="Rectangle-6-Copy-5" fill="#F57C2E" sketch:type="MSShapeGroup" x="261" y="237" width="49" height="49"></rect>
                <rect id="Rectangle-6-Copy-11" fill="#7B7C7C" sketch:type="MSShapeGroup" x="65" y="303" width="49" height="49"></rect>
                <rect id="Rectangle-6-Copy-10" fill="#7B7C7C" sketch:type="MSShapeGroup" x="130" y="303" width="49" height="49"></rect>
                <rect id="Rectangle-6-Copy-9" fill="#7B7C7C" sketch:type="MSShapeGroup" x="196" y="303" width="49" height="49"></rect>
                <rect id="Rectangle-6-Copy-8" fill="#F57C2E" sketch:type="MSShapeGroup" x="261" y="303" width="49" height="49"></rect>
            </g>
            <g id="E" sketch:type="MSLayerGroup" transform="translate(488.000000, 69.500000)">
                <rect id="Rectangle-19-Copy-2" fill="#EB8589" sketch:type="MSShapeGroup" x="0" y="0" width="210" height="55"></rect>
                <rect id="Rectangle-19-Copy-6" fill="#ED275C" sketch:type="MSShapeGroup" x="0" y="274" width="210" height="55"></rect>
                <rect id="Rectangle-19-Copy-3" fill="#F57C2E" sketch:type="MSShapeGroup" x="0" y="136" width="196" height="55"></rect>
                <rect id="Rectangle-18" fill="#AD528D" filter="url(#filter-1)" sketch:type="MSShapeGroup" x="0" y="0" width="55" height="329"></rect>
            </g>
            <g id="E-Copy" sketch:type="MSLayerGroup" transform="translate(1038.000000, 69.500000)">
                <rect id="Rectangle-19-Copy-2" fill="#B8609C" sketch:type="MSShapeGroup" x="0" y="0" width="210" height="55"></rect>
                <rect id="Rectangle-19-Copy-6" fill="#F081A4" sketch:type="MSShapeGroup" x="0" y="274" width="210" height="55"></rect>
                <rect id="Rectangle-19-Copy-3" fill="#EC265B" sketch:type="MSShapeGroup" x="0" y="136" width="196" height="55"></rect>
                <rect id="Rectangle-18" fill="#F37D2D" filter="url(#filter-2)" sketch:type="MSShapeGroup" x="0" y="0" width="55" height="329"></rect>
            </g>
            <g id="V" sketch:type="MSLayerGroup" transform="translate(725.000000, 51.500000)">
                <path d="M30.8387267,149.432752 L375.122277,160.10178 L355.440972,217.10178 L11.7773979,206.229762 L30.8387267,149.432752 Z" id="Rectangle-19-Copy-5" fill="#EB275D" sketch:type="MSShapeGroup" transform="translate(193.449837, 183.267266) scale(-1, 1) rotate(71.000000) translate(-193.449837, -183.267266) "></path>
                <path d="M-71.1612733,149.432752 L273.122277,160.10178 L253.440972,217.10178 L-90.2226021,206.229762 L-71.1612733,149.432752 Z" id="Rectangle-19-Copy-4" fill="#F17FA3" filter="url(#filter-3)" sketch:type="MSShapeGroup" transform="translate(91.449837, 183.267266) rotate(71.000000) translate(-91.449837, -183.267266) "></path>
            </g>
            <g id="N" sketch:type="MSLayerGroup" transform="translate(1288.000000, 70.500000)">
                <rect id="Rectangle-18-Copy-2" fill="#F37D2D" sketch:type="MSShapeGroup" x="204" y="0" width="55" height="328"></rect>
                <path d="M0,0 L55,0 L260,328.5 L205,328.5 L0,0 Z" id="Rectangle-18-Copy-4" fill="#F37FA4" filter="url(#filter-4)" sketch:type="MSShapeGroup"></path>
                <rect id="Rectangle-18-Copy" fill="#ED275C" filter="url(#filter-5)" sketch:type="MSShapeGroup" x="0" y="0" width="55" height="328"></rect>
            </g>
            <g id="T" sketch:type="MSLayerGroup" transform="translate(1594.000000, 67.500000)">
                <rect id="Rectangle-19-Copy-8" fill="#EE265C" sketch:type="MSShapeGroup" x="0" y="0" width="210" height="56"></rect>
                <rect id="Rectangle-18-Copy-3" fill="#F280A4" sketch:type="MSShapeGroup" x="78" y="56" width="55" height="275"></rect>
            </g>
        </g>
    </g>
</svg>